<svg width="1017" height="41" viewBox="0 0 1015 41" fill="none" xmlns="http://www.w3.org/2000/svg">
<path d="M0 0H1015V40H0V0Z" fill="#EE3333" stroke="black" stroke-miterlimit="0" stroke-linejoin="bevel"/>
<path d="M8.91666 11.3958H28.0833M8.91666 29.6042H28.0833M10.8333 26.25V29.6042" stroke="white" stroke-width="1.91667" stroke-linecap="round"/>
<path d="M12.75 22.4167H8.91666V26.25H12.75V22.4167ZM20.4167 18.5833H16.5833V22.4167H20.4167V18.5833ZM28.0833 14.75H24.25V18.5833H28.0833V14.75Z" fill="white" stroke="white" stroke-width="1.91667" stroke-linejoin="round"/>
<path d="M26.1666 18.5833V29.6042M10.8333 14.75V15.2292M10.8333 18.5833V19.0625M18.0208 14.75V15.2292M18.5 22.4167V29.6042" stroke="white" stroke-width="1.91667" stroke-linecap="round"/>
<path d="M46.139 26V17.74H42.891V16.2H51.207V17.74H47.959V26H46.139ZM52.4048 26V18.524H54.1548V26H52.4048ZM53.2868 17.292C52.9602 17.292 52.6895 17.1893 52.4748 16.984C52.2695 16.7787 52.1668 16.5313 52.1668 16.242C52.1668 15.9433 52.2695 15.696 52.4748 15.5C52.6895 15.2947 52.9602 15.192 53.2868 15.192C53.6135 15.192 53.8795 15.29 54.0848 15.486C54.2995 15.6727 54.4068 15.9107 54.4068 16.2C54.4068 16.508 54.3042 16.7693 54.0988 16.984C53.8935 17.1893 53.6228 17.292 53.2868 17.292ZM65.8877 18.44C66.485 18.44 67.0124 18.5567 67.4697 18.79C67.9364 19.0233 68.3004 19.3827 68.5617 19.868C68.823 20.344 68.9537 20.96 68.9537 21.716V26H67.2037V21.94C67.2037 21.2773 67.059 20.7827 66.7697 20.456C66.4804 20.1293 66.065 19.966 65.5237 19.966C65.141 19.966 64.8004 20.05 64.5017 20.218C64.2124 20.386 63.9837 20.6333 63.8157 20.96C63.657 21.2867 63.5777 21.702 63.5777 22.206V26H61.8277V21.94C61.8277 21.2773 61.683 20.7827 61.3937 20.456C61.1044 20.1293 60.689 19.966 60.1477 19.966C59.765 19.966 59.4244 20.05 59.1257 20.218C58.8364 20.386 58.6077 20.6333 58.4397 20.96C58.281 21.2867 58.2017 21.702 58.2017 22.206V26H56.4517V18.524H58.1177V20.512L57.8237 19.924C58.0757 19.4387 58.4397 19.07 58.9157 18.818C59.401 18.566 59.9517 18.44 60.5677 18.44C61.2677 18.44 61.8744 18.6127 62.3877 18.958C62.9104 19.3033 63.2557 19.826 63.4237 20.526L62.7377 20.288C62.9804 19.728 63.3817 19.28 63.9417 18.944C64.5017 18.608 65.1504 18.44 65.8877 18.44ZM74.7177 26.098C73.887 26.098 73.159 25.9347 72.5337 25.608C71.9177 25.272 71.437 24.8147 71.0917 24.236C70.7557 23.6573 70.5877 22.9993 70.5877 22.262C70.5877 21.5153 70.751 20.8573 71.0777 20.288C71.4137 19.7093 71.871 19.2567 72.4497 18.93C73.0377 18.6033 73.705 18.44 74.4517 18.44C75.1797 18.44 75.8283 18.5987 76.3977 18.916C76.967 19.2333 77.415 19.6813 77.7417 20.26C78.0683 20.8387 78.2317 21.52 78.2317 22.304C78.2317 22.3787 78.227 22.4627 78.2177 22.556C78.2177 22.6493 78.213 22.738 78.2037 22.822H71.9737V21.66H77.2797L76.5937 22.024C76.603 21.5947 76.5143 21.2167 76.3277 20.89C76.141 20.5633 75.8843 20.3067 75.5577 20.12C75.2403 19.9333 74.8717 19.84 74.4517 19.84C74.0223 19.84 73.6443 19.9333 73.3177 20.12C73.0003 20.3067 72.7483 20.568 72.5617 20.904C72.3843 21.2307 72.2957 21.618 72.2957 22.066V22.346C72.2957 22.794 72.3983 23.1907 72.6037 23.536C72.809 23.8813 73.0983 24.1473 73.4717 24.334C73.845 24.5207 74.2743 24.614 74.7597 24.614C75.1797 24.614 75.5577 24.5487 75.8937 24.418C76.2297 24.2873 76.5283 24.082 76.7897 23.802L77.7277 24.88C77.3917 25.272 76.967 25.5753 76.4537 25.79C75.9497 25.9953 75.371 26.098 74.7177 26.098ZM79.9126 26V15.612H81.6626V26H79.9126ZM83.9595 26V18.524H85.7095V26H83.9595ZM84.8415 17.292C84.5149 17.292 84.2442 17.1893 84.0295 16.984C83.8242 16.7787 83.7215 16.5313 83.7215 16.242C83.7215 15.9433 83.8242 15.696 84.0295 15.5C84.2442 15.2947 84.5149 15.192 84.8415 15.192C85.1682 15.192 85.4342 15.29 85.6395 15.486C85.8542 15.6727 85.9615 15.9107 85.9615 16.2C85.9615 16.508 85.8589 16.7693 85.6535 16.984C85.4482 17.1893 85.1775 17.292 84.8415 17.292ZM92.2484 18.44C92.8457 18.44 93.3777 18.5567 93.8444 18.79C94.3204 19.0233 94.6937 19.3827 94.9644 19.868C95.2351 20.344 95.3704 20.96 95.3704 21.716V26H93.6204V21.94C93.6204 21.2773 93.4617 20.7827 93.1444 20.456C92.8364 20.1293 92.4024 19.966 91.8424 19.966C91.4317 19.966 91.0677 20.05 90.7504 20.218C90.4331 20.386 90.1857 20.638 90.0084 20.974C89.8404 21.3007 89.7564 21.716 89.7564 22.22V26H88.0064V18.524H89.6724V20.54L89.3784 19.924C89.6397 19.448 90.0177 19.084 90.5124 18.832C91.0164 18.5707 91.5951 18.44 92.2484 18.44ZM101.118 26.098C100.287 26.098 99.5594 25.9347 98.9341 25.608C98.3181 25.272 97.8374 24.8147 97.4921 24.236C97.1561 23.6573 96.9881 22.9993 96.9881 22.262C96.9881 21.5153 97.1514 20.8573 97.4781 20.288C97.8141 19.7093 98.2714 19.2567 98.8501 18.93C99.4381 18.6033 100.105 18.44 100.852 18.44C101.58 18.44 102.229 18.5987 102.798 18.916C103.367 19.2333 103.815 19.6813 104.142 20.26C104.469 20.8387 104.632 21.52 104.632 22.304C104.632 22.3787 104.627 22.4627 104.618 22.556C104.618 22.6493 104.613 22.738 104.604 22.822H98.3741V21.66H103.68L102.994 22.024C103.003 21.5947 102.915 21.2167 102.728 20.89C102.541 20.5633 102.285 20.3067 101.958 20.12C101.641 19.9333 101.272 19.84 100.852 19.84C100.423 19.84 100.045 19.9333 99.7181 20.12C99.4007 20.3067 99.1487 20.568 98.9621 20.904C98.7847 21.2307 98.6961 21.618 98.6961 22.066V22.346C98.6961 22.794 98.7987 23.1907 99.0041 23.536C99.2094 23.8813 99.4987 24.1473 99.8721 24.334C100.245 24.5207 100.675 24.614 101.16 24.614C101.58 24.614 101.958 24.5487 102.294 24.418C102.63 24.2873 102.929 24.082 103.19 23.802L104.128 24.88C103.792 25.272 103.367 25.5753 102.854 25.79C102.35 25.9953 101.771 26.098 101.118 26.098Z" fill="white"/>
</svg>
